<?xml version="1.0" ?><svg enable-background="new 0 0 24 24" id="Layer_1" version="1.1" viewBox="0 0 24 24" xml:space="preserve" xmlns="http://www.w3.org/2000/svg" xmlns:xlink="http://www.w3.org/1999/xlink"><g><path d="M12,4c-4.4111328,0-8,3.5888672-8,8s3.5888672,8,8,8s8-3.5888672,8-8S16.4111328,4,12,4z M12,18   c-3.3085938,0-6-2.6914063-6-6s2.6914063-6,6-6s6,2.6914063,6,6S15.3085938,18,12,18z" fill="#303C42"/><path d="M12,0C5.3833008,0,0,5.3833008,0,12s5.3833008,12,12,12s12-5.3833008,12-12S18.6166992,0,12,0z M12,21   c-4.9624023,0-9-4.0375977-9-9s4.0375977-9,9-9s9,4.0375977,9,9S16.9624023,21,12,21z" fill="#303C42"/><path d="M17.4736328,10.159668C17.4047852,9.956543,17.2143555,9.8198242,17,9.8198242h-3.4511719   l-1.0712891-3.4672852c-0.1289063-0.4189453-0.8261719-0.4189453-0.9550781,0l-1.0712891,3.4672852H7   c-0.2143555,0-0.4047852,0.1367188-0.4736328,0.3398438s-0.0004883,0.4272461,0.1699219,0.5576172l2.8134766,2.1484375   l-1.0776367,3.4868164c-0.0644531,0.2075195,0.0131836,0.4331055,0.1914063,0.5576172   c0.1777344,0.1240234,0.4160156,0.1191406,0.5898438-0.0126953L12,14.7685547l2.7866211,2.1289063   C14.8764648,16.9658203,14.9833984,17,15.090332,17c0.1000977,0,0.2001953-0.0297852,0.2861328-0.0898438   c0.1782227-0.1245117,0.2558594-0.3500977,0.1914063-0.5576172l-1.0776367-3.4868164l2.8134766-2.1484375   C17.4741211,10.5869141,17.5424805,10.362793,17.4736328,10.159668z" fill="#303C42"/></g><g/><g/><g/><g/><g/><g/><g/><g/><g/><g/><g/><g/><g/><g/><g/></svg>