<?xml version="1.0" ?><svg data-name="Layer 1" id="Layer_1" viewBox="0 0 512 512" xmlns="http://www.w3.org/2000/svg"><title/><path d="M256,0C114.615,0,0,114.615,0,256S114.615,512,256,512,512,397.385,512,256,397.385,0,256,0ZM366.418,272.746c-22.052,57.336-63.216,67.9-89.3,67.9s-41.807-21.384-41.807-21.384-7.484,38.758-14.327,56.132c-3.894,9.891-9.847,20.2-14.255,27.263a8.526,8.526,0,0,1-.806,1.282A48.2,48.2,0,0,1,194.3,414.782a5.429,5.429,0,0,1-8.346-3.827c-.456-3.4-.97-8.238-1.448-15.045-.846-9.238-1.307-21.459,1.084-30.544,4.009-15.236,24.591-106.252,24.591-106.252-17.107-46.243,8.554-71.9,30.473-72.973s25.126,28.066,21.116,40.9-13.231,45.307-14.835,50.92,4.01,38.091,37.288,30.473,46.912-58.138,46.912-93.021-22.053-66.691-74.176-67.493-78.587,38.224-85,66.29,6.014,47.847,9.757,53.059,3.207,6.683,2.673,11.895-2,17.241-9.623,17.508-23.256-13.9-29.269-25.927c-19.69-39.381-6.934-85.372,21.539-117.275,36.457-40.849,107.555-47.58,154.478-22.257C372.032,158.475,388.471,215.41,366.418,272.746Z"/></svg>